<svg width="1440" height="350" viewBox="0 0 1440 350" fill="none" xmlns="http://www.w3.org/2000/svg">
<g clip-path="url(#clip0_229_960)">
<rect width="1440" height="350" fill="url(#paint0_linear_229_960)"/>
<path d="M1505.68 115.92C1551.85 98.5233 1603.77 115.417 1630.42 156.511C1646.45 181.222 1672.63 198.02 1701.87 202.65C1750.12 210.293 1786.89 250.618 1789.15 299.243C1790.52 328.602 1804.7 356.143 1827.62 374.542C1865.47 404.927 1876.94 458.205 1854.32 501.353C1840.65 527.41 1838.88 557.998 1849.43 585.305C1866.99 630.73 1849.74 682.393 1808.27 708.609C1783.33 724.37 1766.34 750.007 1761.64 778.978C1753.84 826.951 1712.53 863.055 1663.8 865.265C1634.29 866.604 1606.3 880.425 1587.52 903.229C1556.42 940.996 1502.57 951.837 1459.17 929.654C1432.87 916.216 1401.7 914.352 1373.94 924.812C1327.76 942.209 1275.84 925.315 1249.19 884.221C1233.17 859.51 1206.98 842.712 1177.75 838.082C1129.49 830.439 1092.72 790.114 1090.46 741.49C1089.1 712.13 1074.92 684.589 1052 666.19C1014.14 635.805 1002.67 582.527 1025.3 539.379C1038.96 513.322 1040.74 482.734 1030.18 455.427C1012.63 410.003 1029.87 358.339 1071.35 332.123C1096.28 316.362 1113.27 290.725 1117.98 261.754C1125.77 213.781 1167.08 177.678 1215.82 175.467C1245.33 174.128 1273.31 160.307 1292.09 137.503C1323.2 99.7363 1377.04 88.8953 1420.45 111.078C1446.74 124.516 1477.91 126.381 1505.68 115.92Z" fill="url(#paint1_linear_229_960)" fill-opacity="0.7"/>
<path d="M1492.93 194.447C1530.13 180.431 1571.97 194.042 1593.44 227.153C1606.35 247.062 1627.45 260.597 1651 264.327C1689.88 270.485 1719.51 302.976 1721.33 342.153C1722.43 365.808 1733.85 387.999 1752.32 402.823C1782.82 427.305 1792.06 470.232 1773.83 504.997C1762.83 525.991 1761.39 550.636 1769.9 572.638C1784.04 609.237 1770.15 650.863 1736.73 671.986C1716.64 684.685 1702.95 705.341 1699.16 728.683C1692.88 767.336 1659.59 796.425 1620.33 798.206C1596.55 799.285 1574 810.421 1558.87 828.794C1533.81 859.224 1490.43 867.959 1455.46 850.085C1434.27 839.258 1409.16 837.756 1386.79 846.185C1349.58 860.201 1307.75 846.59 1286.27 813.479C1273.36 793.57 1252.27 780.035 1228.71 776.305C1189.83 770.147 1160.21 737.656 1158.38 698.479C1157.28 674.823 1145.86 652.633 1127.39 637.808C1096.89 613.327 1087.65 570.4 1105.88 535.635C1116.89 514.64 1118.32 489.996 1109.82 467.993C1095.67 431.394 1109.57 389.768 1142.98 368.645C1163.07 355.947 1176.76 335.291 1180.55 311.948C1186.83 273.296 1220.12 244.207 1259.38 242.425C1283.16 241.347 1305.71 230.211 1320.84 211.838C1345.9 181.408 1389.29 172.673 1424.26 190.546C1445.44 201.373 1470.56 202.876 1492.93 194.447Z" fill="url(#paint2_linear_229_960)" fill-opacity="0.7"/>
<path d="M1480.27 271.354C1508.69 260.646 1540.65 271.045 1557.05 296.339C1566.92 311.549 1583.03 321.889 1601.03 324.739C1630.73 329.443 1653.36 354.264 1654.75 384.193C1655.6 402.265 1664.32 419.217 1678.43 430.542C1701.73 449.245 1708.79 482.038 1694.86 508.597C1686.46 524.636 1685.36 543.463 1691.86 560.271C1702.66 588.231 1692.05 620.031 1666.52 636.168C1651.17 645.869 1640.72 661.649 1637.82 679.481C1633.02 709.01 1607.59 731.232 1577.6 732.593C1559.43 733.417 1542.21 741.924 1530.65 755.96C1511.5 779.207 1478.36 785.88 1451.64 772.225C1435.46 763.954 1416.27 762.807 1399.18 769.245C1370.76 779.953 1338.8 769.555 1322.4 744.26C1312.53 729.05 1296.42 718.711 1278.42 715.861C1248.72 711.157 1226.09 686.335 1224.7 656.406C1223.85 638.335 1215.13 621.383 1201.02 610.057C1177.72 591.355 1170.66 558.561 1184.59 532.003C1193 515.964 1194.09 497.137 1187.59 480.328C1176.79 452.369 1187.4 420.569 1212.93 404.432C1228.28 394.731 1238.73 378.951 1241.63 361.118C1246.43 331.59 1271.86 309.367 1301.85 308.007C1320.02 307.183 1337.24 298.675 1348.8 284.639C1367.95 261.393 1401.09 254.72 1427.81 268.374C1443.99 276.645 1463.18 277.793 1480.27 271.354Z" fill="url(#paint3_linear_229_960)" fill-opacity="0.7"/>
<path d="M1507.44 120.599C1551.44 104.022 1600.87 120.131 1626.23 159.232C1643.04 185.155 1670.48 202.741 1701.08 207.589C1747.05 214.869 1782.01 253.272 1784.16 299.475C1785.59 330.287 1800.46 359.156 1824.49 378.441C1860.5 407.347 1871.39 458.025 1849.89 499.031C1835.56 526.358 1833.69 558.449 1844.77 587.108C1861.45 630.28 1845.07 679.428 1805.6 704.383C1779.46 720.904 1761.64 747.784 1756.7 778.176C1749.29 823.762 1709.99 858.164 1663.57 860.27C1632.67 861.672 1603.35 876.14 1583.66 900.05C1554.07 935.986 1502.78 946.328 1461.44 925.202C1433.91 911.128 1401.27 909.172 1372.17 920.133C1328.17 936.711 1278.74 920.601 1253.39 881.5C1236.57 855.578 1209.14 837.991 1178.53 833.144C1132.56 825.864 1097.61 787.461 1095.46 741.257C1094.02 710.445 1079.15 681.576 1055.13 662.291C1019.12 633.385 1008.22 582.708 1029.73 541.701C1044.05 514.374 1045.92 482.284 1034.85 453.624C1018.16 410.452 1034.54 361.304 1074.02 336.349C1100.15 319.828 1117.97 292.949 1122.91 262.556C1130.32 216.97 1169.62 182.568 1216.04 180.462C1246.95 179.06 1276.26 164.592 1295.95 140.682C1325.55 104.746 1376.83 94.4044 1418.17 115.53C1445.71 129.604 1478.34 131.56 1507.44 120.599ZM1494.69 199.126C1529.72 185.929 1569.06 198.756 1589.24 229.873C1602.94 250.995 1625.29 265.318 1650.22 269.266C1686.81 275.061 1714.62 305.629 1716.33 342.386C1717.5 367.493 1729.62 391.012 1749.19 406.723C1777.85 429.724 1786.51 470.051 1769.41 502.675C1757.73 524.939 1756.21 551.087 1765.23 574.441C1778.51 608.788 1765.48 647.899 1734.06 667.76C1712.77 681.219 1698.25 703.118 1694.22 727.882C1688.33 764.147 1657.06 791.535 1620.1 793.212C1594.93 794.353 1571.06 806.136 1555.01 825.616C1531.46 854.214 1490.63 862.45 1457.73 845.633C1435.3 834.17 1408.72 832.577 1385.02 841.506C1349.99 854.703 1310.65 841.876 1290.47 810.759C1276.77 789.637 1254.42 775.314 1229.49 771.366C1192.9 765.571 1165.09 735.003 1163.38 698.246C1162.21 673.138 1150.09 649.62 1130.52 633.909C1101.87 610.907 1093.2 570.581 1110.31 537.957C1121.98 515.693 1123.51 489.545 1114.48 466.191C1101.21 431.844 1114.23 392.733 1145.65 372.872C1166.94 359.413 1181.47 337.514 1185.49 312.75C1191.38 276.485 1222.66 249.097 1259.61 247.42C1284.78 246.278 1308.66 234.496 1324.7 215.016C1348.25 186.418 1389.08 178.182 1421.98 194.999C1444.41 206.462 1470.99 208.055 1494.69 199.126ZM1597.63 224.432C1574.87 189.328 1530.55 174.932 1491.17 189.768C1470.12 197.696 1446.47 196.285 1426.53 186.094C1389.49 167.164 1343.55 176.398 1316.98 208.659C1302.76 225.925 1281.54 236.415 1259.16 237.431C1217.58 239.317 1182.29 270.106 1175.62 311.146C1172.06 333.067 1159.2 352.481 1140.31 364.419C1104.9 386.804 1090.14 430.945 1105.15 469.796C1113.13 490.446 1111.79 513.588 1101.45 533.313C1082.1 570.219 1091.92 615.746 1124.26 641.708C1141.63 655.646 1152.36 676.509 1153.39 698.711C1155.33 740.309 1186.76 774.722 1227.93 781.243C1250.11 784.756 1269.95 797.502 1282.08 816.2C1304.85 851.304 1349.17 865.7 1388.55 850.864C1409.59 842.935 1433.24 844.347 1453.18 854.538C1490.22 873.468 1536.16 864.234 1562.73 831.973C1576.95 814.707 1598.17 804.217 1620.56 803.201C1662.13 801.315 1697.43 770.526 1704.09 729.485C1707.66 707.564 1720.52 688.151 1739.4 676.213C1774.81 653.828 1789.58 609.687 1774.56 570.836C1766.58 550.186 1767.92 527.044 1778.26 507.319C1797.61 470.413 1787.79 424.885 1755.45 398.924C1738.09 384.986 1727.36 364.123 1726.32 341.921C1724.39 300.323 1692.96 265.91 1651.78 259.389C1629.6 255.876 1609.76 243.13 1597.63 224.432ZM1482.03 276.033C1508.28 266.145 1537.75 275.759 1552.86 299.06C1563.51 315.482 1580.88 326.61 1600.25 329.677C1627.66 334.019 1648.48 356.917 1649.76 384.426C1650.67 403.95 1660.09 422.23 1675.3 434.441C1696.76 451.664 1703.24 481.858 1690.44 506.275C1681.36 523.583 1680.17 543.914 1687.19 562.074C1697.13 587.781 1687.38 617.066 1663.85 631.941C1647.3 642.402 1636.01 659.426 1632.88 678.679C1628.47 705.82 1605.05 726.342 1577.37 727.598C1557.81 728.485 1539.26 737.639 1526.79 752.782C1509.15 774.197 1478.57 780.37 1453.92 767.773C1436.49 758.866 1415.84 757.627 1397.42 764.566C1371.17 774.455 1341.7 764.841 1326.59 741.54C1315.94 725.118 1298.57 713.99 1279.2 710.923C1251.79 706.581 1230.97 683.682 1229.69 656.174C1228.78 636.65 1219.36 618.369 1204.15 606.158C1182.69 588.935 1176.21 558.742 1189.01 534.324C1198.09 517.016 1199.28 496.686 1192.26 478.526C1182.32 452.818 1192.07 423.533 1215.6 408.658C1232.15 398.197 1243.44 381.174 1246.57 361.92C1250.98 334.779 1274.4 314.258 1302.08 313.002C1321.64 312.114 1340.19 302.961 1352.66 287.818C1370.3 266.403 1400.88 260.229 1425.53 272.826C1442.96 281.734 1463.61 282.972 1482.03 276.033ZM1561.25 293.619C1543.55 266.331 1509.1 255.148 1478.51 266.675C1462.74 272.614 1445.02 271.557 1430.08 263.922C1401.3 249.211 1365.6 256.383 1344.94 281.461C1334.3 294.39 1318.4 302.251 1301.63 303.012C1269.32 304.477 1241.88 328.4 1236.7 360.317C1234.03 376.728 1224.4 391.265 1210.26 400.206C1182.73 417.604 1171.25 451.919 1182.93 482.131C1188.9 497.587 1187.9 514.912 1180.16 529.681C1165.11 558.381 1172.75 593.774 1197.89 613.957C1210.89 624.396 1218.93 640.02 1219.7 656.639C1221.21 688.989 1245.64 715.732 1277.64 720.799C1294.26 723.432 1309.12 732.983 1318.2 746.981C1335.9 774.269 1370.35 785.452 1400.94 773.924C1416.71 767.986 1434.43 769.043 1449.37 776.678C1478.15 791.389 1513.85 784.217 1534.51 759.139C1545.15 746.21 1561.05 738.348 1577.82 737.588C1610.13 736.122 1637.57 712.199 1642.75 680.283C1645.42 663.872 1655.05 649.335 1669.19 640.394C1696.72 622.995 1708.2 588.681 1696.52 558.469C1690.55 543.012 1691.55 525.688 1699.29 510.919C1714.34 482.219 1706.7 446.825 1681.56 426.643C1668.56 416.204 1660.52 400.579 1659.75 383.961C1658.24 351.611 1633.81 324.867 1601.81 319.8C1585.19 317.168 1570.33 307.616 1561.25 293.619Z" stroke="url(#paint4_linear_229_960)" stroke-opacity="0.7" stroke-width="10"/>
<path d="M-79.0624 115.92C-125.24 98.5233 -177.158 115.417 -203.809 156.511C-219.835 181.222 -246.02 198.02 -275.252 202.65C-323.51 210.293 -360.275 250.618 -362.538 299.243C-363.905 328.602 -378.083 356.143 -401.004 374.542C-438.856 404.927 -450.327 458.205 -427.703 501.353C-414.04 527.41 -412.262 557.998 -422.817 585.305C-440.374 630.73 -423.127 682.393 -381.654 708.609C-356.722 724.37 -339.73 750.007 -335.023 778.978C-327.228 826.951 -285.917 863.055 -237.184 865.265C-207.674 866.604 -179.688 880.425 -160.908 903.229C-129.804 940.996 -75.958 951.837 -32.5541 929.654C-6.26157 916.216 24.9084 914.352 52.6754 924.812C98.8528 942.209 150.771 925.315 177.422 884.221C193.448 859.51 219.633 842.712 248.865 838.082C297.123 830.439 333.889 790.114 336.151 741.49C337.518 712.13 351.696 684.589 374.617 666.19C412.469 635.805 423.94 582.527 401.316 539.379C387.653 513.322 385.875 482.734 396.43 455.427C413.987 410.003 396.74 358.339 355.267 332.123C330.335 316.362 313.343 290.725 308.636 261.754C300.841 213.781 259.53 177.678 210.797 175.467C181.287 174.128 153.301 160.307 134.521 137.503C103.417 99.7363 49.5711 88.8953 6.16718 111.078C-20.1254 124.516 -51.2954 126.381 -79.0624 115.92Z" fill="url(#paint5_linear_229_960)" fill-opacity="0.7"/>
<path d="M-66.3152 194.447C-103.521 180.431 -145.352 194.042 -166.826 227.153C-179.738 247.062 -200.835 260.597 -224.389 264.327C-263.271 270.485 -292.893 302.976 -294.716 342.153C-295.817 365.808 -307.241 387.999 -325.708 402.823C-356.206 427.305 -365.449 470.232 -347.22 504.997C-336.212 525.991 -334.78 550.636 -343.284 572.638C-357.429 609.237 -343.533 650.863 -310.118 671.986C-290.03 684.685 -276.339 705.341 -272.546 728.683C-266.266 767.336 -232.981 796.425 -193.716 798.206C-169.94 799.285 -147.39 810.421 -132.259 828.794C-107.199 859.224 -63.814 867.959 -28.8428 850.085C-7.65848 839.258 17.4557 837.756 39.828 846.185C77.0338 860.201 118.865 846.59 140.338 813.479C153.251 793.57 174.348 780.035 197.901 776.305C236.783 770.147 266.406 737.656 268.229 698.479C269.33 674.823 280.754 652.633 299.221 637.808C329.719 613.327 338.962 570.4 320.733 535.635C309.725 514.64 308.292 489.996 316.796 467.993C330.942 431.394 317.046 389.768 283.631 368.645C263.542 355.947 249.852 335.291 246.059 311.948C239.778 273.296 206.494 244.207 167.229 242.425C143.453 241.347 120.903 230.211 105.772 211.838C80.7114 181.408 37.3267 172.673 2.35553 190.546C-18.8288 201.373 -43.9429 202.876 -66.3152 194.447Z" fill="url(#paint6_linear_229_960)" fill-opacity="0.7"/>
<path d="M-53.6558 271.354C-82.0789 260.646 -114.036 271.045 -130.44 296.339C-140.304 311.549 -156.422 321.889 -174.415 324.739C-204.119 329.443 -226.749 354.264 -228.142 384.193C-228.983 402.265 -237.71 419.217 -251.818 430.542C-275.117 449.245 -282.178 482.038 -268.252 508.597C-259.842 524.636 -258.748 543.463 -265.244 560.271C-276.051 588.231 -265.435 620.031 -239.908 636.168C-224.561 645.869 -214.102 661.649 -211.205 679.481C-206.407 709.01 -180.98 731.232 -150.983 732.593C-132.819 733.417 -115.593 741.924 -104.033 755.96C-84.8885 779.207 -51.745 785.88 -25.0289 772.225C-8.84531 763.954 10.3405 762.807 27.4317 769.245C55.8549 779.953 87.8119 769.555 104.216 744.26C114.08 729.05 130.198 718.711 148.191 715.861C177.895 711.157 200.525 686.335 201.917 656.406C202.758 638.335 211.486 621.383 225.594 610.057C248.893 591.355 255.953 558.561 242.028 532.003C233.618 515.964 232.524 497.137 239.02 480.328C249.827 452.369 239.211 420.569 213.684 404.432C198.337 394.731 187.878 378.951 184.981 361.118C180.183 331.59 154.756 309.367 124.759 308.007C106.595 307.183 89.3688 298.675 77.8093 284.639C58.6645 261.393 25.5209 254.72 -1.19513 268.374C-17.3788 276.645 -36.5646 277.793 -53.6558 271.354Z" fill="url(#paint7_linear_229_960)" fill-opacity="0.7"/>
<path d="M-199.614 159.232C-174.256 120.131 -124.827 104.022 -80.8251 120.599C-51.7303 131.56 -19.0945 129.604 8.44263 115.53C49.7785 94.4044 101.066 104.746 130.661 140.682C150.353 164.592 179.666 179.06 210.571 180.462C256.992 182.568 296.293 216.97 303.7 262.556C308.639 292.949 326.461 319.828 352.595 336.349C392.072 361.304 408.453 410.452 391.766 453.624C380.689 482.284 382.559 514.374 396.888 541.701C418.389 582.708 407.496 633.385 371.487 662.291C347.463 681.576 332.591 710.445 331.157 741.257C329.007 787.461 294.05 825.864 248.083 833.144C217.476 837.991 190.039 855.578 173.227 881.5C147.869 920.601 98.4402 936.711 54.4381 920.133C25.3433 909.172 -7.29245 911.128 -34.8296 925.202C-76.1655 946.328 -127.453 935.986 -157.048 900.05C-176.74 876.14 -206.053 861.672 -236.958 860.27C-283.379 858.164 -322.68 823.762 -330.087 778.176C-335.026 747.784 -352.847 720.904 -378.982 704.383C-418.459 679.428 -434.839 630.28 -418.153 587.108C-407.076 558.449 -408.946 526.358 -423.275 499.031C-444.776 458.025 -433.883 407.347 -397.874 378.441C-373.85 359.156 -358.978 330.287 -357.544 299.475C-355.394 253.272 -320.437 214.869 -274.47 207.589C-243.863 202.741 -216.426 185.155 -199.614 159.232ZM-64.5525 189.768C-103.934 174.932 -148.255 189.328 -171.021 224.432C-183.147 243.13 -202.992 255.876 -225.171 259.389C-266.344 265.91 -297.775 300.323 -299.711 341.921C-300.744 364.123 -311.474 384.986 -328.838 398.924C-361.179 424.885 -371 470.413 -351.649 507.319C-341.306 527.044 -339.966 550.186 -347.947 570.836C-362.964 609.687 -348.201 653.828 -312.79 676.213C-293.904 688.151 -281.043 707.564 -277.482 729.485C-270.813 770.526 -235.519 801.315 -193.943 803.201C-171.561 804.217 -150.339 814.707 -136.119 831.973C-109.55 864.234 -63.6065 873.468 -26.5673 854.538C-6.62762 844.347 17.0208 842.935 38.0652 850.864C77.4464 865.7 121.768 851.304 144.533 816.2C156.659 797.502 176.504 784.756 198.683 781.243C239.857 774.722 271.288 740.309 273.224 698.711C274.257 676.508 284.987 655.646 302.351 641.708C334.692 615.746 344.513 570.219 325.161 533.313C314.819 513.588 313.479 490.446 321.46 469.796C336.476 430.945 321.714 386.804 286.302 364.419C267.417 352.481 254.556 333.067 250.994 311.146C244.326 270.106 209.032 239.317 167.456 237.431C145.073 236.415 123.851 225.925 109.631 208.659C83.0626 176.398 37.1193 167.164 0.0800781 186.094C-19.8596 196.285 -43.5081 197.696 -64.5525 189.768ZM-162.631 229.873C-142.45 198.756 -103.108 185.929 -68.0779 199.126C-44.3778 208.055 -17.7979 206.462 4.63098 194.999C37.5342 178.182 78.3602 186.418 101.912 215.016C117.955 234.496 141.832 246.278 167.003 247.42C203.956 249.097 235.231 276.485 241.124 312.75C245.148 337.514 259.668 359.413 280.959 372.872C312.378 392.733 325.408 431.844 312.133 466.191C303.106 489.545 304.631 515.693 316.305 537.957C333.411 570.581 324.746 610.907 296.091 633.909C276.52 649.62 264.403 673.138 263.234 698.246C261.524 735.003 233.71 765.571 197.119 771.366C172.192 775.314 149.842 789.637 136.143 810.759C115.963 841.876 76.6212 854.703 41.5907 841.506C17.8906 832.577 -8.68933 834.17 -31.1182 845.633C-64.0214 862.45 -104.847 854.214 -128.4 825.616C-144.442 806.136 -168.319 794.353 -193.49 793.212C-230.444 791.535 -261.718 764.147 -267.611 727.882C-271.635 703.118 -286.155 681.219 -307.446 667.76C-338.865 647.899 -351.895 608.788 -338.62 574.441C-329.593 551.087 -331.118 524.939 -342.792 502.675C-359.898 470.051 -351.233 429.724 -322.579 406.723C-303.007 391.012 -290.89 367.493 -289.722 342.386C-288.011 305.629 -260.197 275.061 -223.606 269.266C-198.679 265.318 -176.329 250.995 -162.631 229.873ZM-51.893 266.675C-82.4915 255.148 -116.938 266.331 -134.635 293.619C-143.713 307.616 -158.578 317.168 -175.197 319.8C-207.192 324.867 -231.631 351.611 -233.136 383.961C-233.91 400.579 -241.943 416.204 -254.948 426.643C-280.09 446.825 -287.728 482.219 -272.68 510.919C-264.936 525.688 -263.934 543.012 -269.908 558.469C-281.585 588.681 -270.103 622.995 -242.579 640.394C-228.436 649.335 -218.807 663.872 -216.14 680.283C-210.954 712.199 -183.518 736.122 -151.21 737.588C-134.44 738.348 -118.541 746.21 -107.893 759.139C-87.2397 784.217 -51.5375 791.389 -22.7535 776.678C-7.81445 769.043 9.90567 767.986 25.669 773.924C56.2675 785.452 90.7142 774.269 108.411 746.981C117.489 732.983 132.354 723.432 148.973 720.799C180.968 715.732 205.407 688.989 206.912 656.639C207.685 640.02 215.719 624.396 228.724 613.957C253.866 593.774 261.504 558.381 246.456 529.681C238.712 514.912 237.71 497.587 243.684 482.131C255.361 451.919 243.879 417.604 216.355 400.206C202.212 391.265 192.583 376.728 189.916 360.317C184.73 328.4 157.294 304.477 124.986 303.012C108.216 302.251 92.3168 294.39 81.6689 281.461C61.0157 256.383 25.3135 249.211 -3.47058 263.922C-18.4096 271.557 -36.1297 272.614 -51.893 266.675ZM-126.245 299.06C-111.134 275.759 -81.6664 266.145 -55.4185 276.033C-36.9995 282.972 -16.3479 281.734 1.08032 272.826C25.7284 260.229 56.3132 266.403 73.9496 287.818C86.4207 302.961 104.974 312.114 124.533 313.002C152.218 314.258 175.635 334.779 180.046 361.92C183.174 381.174 194.463 398.197 211.012 408.658C234.543 423.533 244.293 452.818 234.357 478.526C227.337 496.686 228.524 517.016 237.6 534.324C250.403 558.742 243.919 588.935 222.464 606.158C207.252 618.369 197.831 636.65 196.923 656.174C195.643 683.682 174.821 706.581 147.409 710.923C128.041 713.99 110.671 725.118 100.021 741.54C84.9096 764.841 55.4423 774.455 29.1945 764.566C10.7754 757.627 -9.87616 758.866 -27.3044 767.773C-51.9525 780.37 -82.5373 774.197 -100.174 752.782C-112.645 737.639 -131.198 728.485 -150.757 727.598C-178.442 726.342 -201.86 705.82 -206.27 678.679C-209.398 659.426 -220.687 642.402 -237.236 631.941C-260.767 617.066 -270.517 587.781 -260.581 562.074C-253.562 543.914 -254.748 523.583 -263.824 506.275C-276.627 481.858 -270.143 451.664 -248.688 434.441C-233.476 422.23 -224.056 403.95 -223.147 384.426C-221.867 356.917 -201.045 334.019 -173.633 329.677C-154.265 326.61 -136.895 315.482 -126.245 299.06Z" stroke="url(#paint8_linear_229_960)" stroke-opacity="0.7" stroke-width="10"/>
<path fill-rule="evenodd" clip-rule="evenodd" d="M338.631 0C357.634 18.137 369.232 43.0778 370.462 69.4896C372.725 118.114 409.49 158.439 457.748 166.082C486.98 170.712 513.165 187.51 529.191 212.221C555.842 253.315 607.76 270.209 653.938 252.812C681.705 242.352 712.875 244.216 739.167 257.654C782.571 279.837 836.417 268.996 867.521 231.229C886.301 208.425 914.287 194.604 943.797 193.265C992.531 191.055 1033.84 154.951 1041.64 106.978C1046.34 78.007 1063.33 52.3699 1088.27 36.6094C1103.16 27.1974 1114.92 14.5055 1123.08 0H1111.4C1104.26 11.051 1094.67 20.7306 1082.92 28.1566C1055.59 45.4376 1036.93 73.5605 1031.77 105.374C1024.75 148.573 987.455 181.274 943.344 183.275C911.045 184.741 880.405 199.854 859.801 224.872C831.715 258.976 782.986 268.819 743.718 248.75C714.936 234.04 680.835 231.993 650.412 243.454C608.586 259.212 561.646 243.887 537.581 206.779C519.983 179.645 491.293 161.27 459.312 156.205C415.637 149.288 382.488 112.807 380.451 69.0247C379.257 43.3781 369.177 19.0371 352.472 0H338.631ZM421.771 0C425.662 8.40637 427.958 17.5503 428.395 26.9434C430.444 70.9622 463.683 107.298 507.147 114.182C527.952 117.477 546.545 129.435 557.885 146.92C581.943 184.018 628.754 199.198 670.311 183.543C690.027 176.115 712.21 177.435 730.905 186.99C770.012 206.977 818.514 197.244 846.591 163.151C859.9 146.992 879.795 137.148 900.783 136.196C944.671 134.205 981.973 101.715 989.03 58.2873C992.361 37.7877 1004.39 19.6172 1022.07 8.43921C1026.12 5.88299 1029.91 3.05789 1033.43 0H1000.01C983.751 14.1412 972.781 33.5852 969.289 55.0797C963.784 88.9576 934.519 114.645 899.876 116.217C873.311 117.422 848.107 129.85 831.153 150.437C809.109 177.204 770.842 184.94 740.007 169.181C716.333 157.082 688.288 155.398 663.26 164.827C630.405 177.204 593.552 165.162 574.665 136.038C560.18 113.704 536.578 98.5934 510.276 94.4278C475.976 88.9955 449.971 60.3495 448.373 26.0136C447.957 17.0646 446.226 8.31001 443.324 0H421.771ZM497.028 0C504.353 27.694 527.698 49.1195 556.858 53.7379C572.103 56.1524 585.715 64.9158 594.007 77.7015C612.997 106.983 649.933 118.95 682.707 106.603C697.142 101.165 713.397 102.131 727.091 109.13C757.943 124.898 796.204 117.227 818.366 90.3174C828.102 78.495 842.674 71.28 858.049 70.5825C892.669 69.0121 922.115 43.3884 927.689 9.08484C928.194 5.97332 928.974 2.93485 930.008 0H909.153C908.672 1.93419 908.27 3.89462 907.947 5.8772C903.925 30.6309 882.517 49.452 857.143 50.603C836.19 51.5535 816.31 61.3532 802.927 77.603C786.799 97.1865 758.773 102.861 736.193 91.321C717.52 81.7776 695.403 80.4482 675.656 87.8875C651.583 96.9564 624.606 88.1269 610.787 66.8191C599.351 49.1851 580.728 37.2692 559.986 33.9841C540.479 30.8945 524.655 17.5551 518.01 0H497.028Z" fill="url(#paint9_linear_229_960)" fill-opacity="0.7"/>
</g>
<defs>
<linearGradient id="paint0_linear_229_960" x1="720" y1="0" x2="720" y2="350" gradientUnits="userSpaceOnUse">
<stop stop-color="#121212" stop-opacity="0"/>
<stop offset="1" stop-color="#006399"/>
</linearGradient>
<linearGradient id="paint1_linear_229_960" x1="1439.81" y1="99.6602" x2="1439.81" y2="941.072" gradientUnits="userSpaceOnUse">
<stop offset="0.107292" stop-color="#2B78B4" stop-opacity="0"/>
<stop offset="1" stop-color="#2B78B4" stop-opacity="0.57"/>
</linearGradient>
<linearGradient id="paint2_linear_229_960" x1="1439.81" y1="99.6602" x2="1439.81" y2="941.072" gradientUnits="userSpaceOnUse">
<stop offset="0.107292" stop-color="#2B78B4" stop-opacity="0"/>
<stop offset="1" stop-color="#2B78B4" stop-opacity="0.57"/>
</linearGradient>
<linearGradient id="paint3_linear_229_960" x1="1439.81" y1="99.6602" x2="1439.81" y2="941.072" gradientUnits="userSpaceOnUse">
<stop offset="0.107292" stop-color="#2B78B4" stop-opacity="0"/>
<stop offset="1" stop-color="#2B78B4" stop-opacity="0.57"/>
</linearGradient>
<linearGradient id="paint4_linear_229_960" x1="1439.81" y1="99.6602" x2="1439.81" y2="941.072" gradientUnits="userSpaceOnUse">
<stop stop-color="#2B78B4" stop-opacity="0.57"/>
<stop offset="1" stop-color="#2B78B4" stop-opacity="0"/>
</linearGradient>
<linearGradient id="paint5_linear_229_960" x1="-13.1935" y1="99.6602" x2="-13.1935" y2="941.072" gradientUnits="userSpaceOnUse">
<stop offset="0.107292" stop-color="#2B78B4" stop-opacity="0"/>
<stop offset="1" stop-color="#2B78B4" stop-opacity="0.57"/>
</linearGradient>
<linearGradient id="paint6_linear_229_960" x1="-13.1935" y1="99.6602" x2="-13.1935" y2="941.072" gradientUnits="userSpaceOnUse">
<stop offset="0.107292" stop-color="#2B78B4" stop-opacity="0"/>
<stop offset="1" stop-color="#2B78B4" stop-opacity="0.57"/>
</linearGradient>
<linearGradient id="paint7_linear_229_960" x1="-13.1935" y1="99.6602" x2="-13.1935" y2="941.072" gradientUnits="userSpaceOnUse">
<stop offset="0.107292" stop-color="#2B78B4" stop-opacity="0"/>
<stop offset="1" stop-color="#2B78B4" stop-opacity="0.57"/>
</linearGradient>
<linearGradient id="paint8_linear_229_960" x1="-13.1935" y1="99.6602" x2="-13.1935" y2="941.072" gradientUnits="userSpaceOnUse">
<stop stop-color="#2B78B4" stop-opacity="0.57"/>
<stop offset="1" stop-color="#2B78B4" stop-opacity="0"/>
</linearGradient>
<linearGradient id="paint9_linear_229_960" x1="730.854" y1="0" x2="730.854" y2="269.072" gradientUnits="userSpaceOnUse">
<stop offset="0.107292" stop-color="#2B78B4" stop-opacity="0"/>
<stop offset="1" stop-color="#2B78B4" stop-opacity="0.57"/>
</linearGradient>
<clipPath id="clip0_229_960">
<rect width="1440" height="350" fill="white"/>
</clipPath>
</defs>
</svg>